<mxfile host="app.diagrams.net" modified="2024-02-01T21:17:58.890Z" agent="Mozilla/5.0 (Macintosh; Intel Mac OS X 10_15_7) AppleWebKit/605.1.15 (KHTML, like Gecko) Version/17.0 Safari/605.1.15" etag="uTCUKlctMtNVPhV1VUKx" version="23.1.1" type="github">
  <diagram name="Page-1" id="ECB2hv79NEqVb4qRkYHT">
    <mxGraphModel dx="954" dy="624" grid="1" gridSize="10" guides="1" tooltips="1" connect="1" arrows="1" fold="1" page="1" pageScale="1" pageWidth="850" pageHeight="1100" math="0" shadow="0">
      <root>
        <mxCell id="0" />
        <mxCell id="1" parent="0" />
        <mxCell id="43lHmASngVMU4CX9rgrj-1" value="The Least Squares Method" style="rounded=0;whiteSpace=wrap;html=1;fontSize=18;" vertex="1" parent="1">
          <mxGeometry x="70" y="60" width="270" height="60" as="geometry" />
        </mxCell>
        <mxCell id="43lHmASngVMU4CX9rgrj-7" value="" style="shape=parallelogram;perimeter=parallelogramPerimeter;whiteSpace=wrap;html=1;fixedSize=1;rotation=45;" vertex="1" parent="1">
          <mxGeometry x="181.61" y="259.94" width="330.82" height="238.26" as="geometry" />
        </mxCell>
        <mxCell id="43lHmASngVMU4CX9rgrj-4" value="" style="endArrow=classic;html=1;rounded=0;" edge="1" parent="1">
          <mxGeometry width="50" height="50" relative="1" as="geometry">
            <mxPoint x="140" y="350" as="sourcePoint" />
            <mxPoint x="410" y="180" as="targetPoint" />
          </mxGeometry>
        </mxCell>
        <mxCell id="43lHmASngVMU4CX9rgrj-12" value="" style="endArrow=none;dashed=1;html=1;dashPattern=1 3;strokeWidth=2;rounded=0;exitX=0.552;exitY=0.467;exitDx=0;exitDy=0;exitPerimeter=0;" edge="1" parent="1" source="43lHmASngVMU4CX9rgrj-7">
          <mxGeometry width="50" height="50" relative="1" as="geometry">
            <mxPoint x="400" y="350" as="sourcePoint" />
            <mxPoint x="410" y="180" as="targetPoint" />
          </mxGeometry>
        </mxCell>
        <mxCell id="43lHmASngVMU4CX9rgrj-13" value="Projecting a vector onto a plane" style="text;html=1;strokeColor=none;fillColor=none;align=center;verticalAlign=middle;whiteSpace=wrap;rounded=0;" vertex="1" parent="1">
          <mxGeometry x="410" y="160" width="60" height="30" as="geometry" />
        </mxCell>
        <mxCell id="43lHmASngVMU4CX9rgrj-14" value="" style="endArrow=classic;html=1;rounded=0;entryX=0.796;entryY=0.125;entryDx=0;entryDy=0;entryPerimeter=0;" edge="1" parent="1">
          <mxGeometry width="50" height="50" relative="1" as="geometry">
            <mxPoint x="380.56" y="390" as="sourcePoint" />
            <mxPoint x="470.00004247629664" y="405.1335962121665" as="targetPoint" />
          </mxGeometry>
        </mxCell>
      </root>
    </mxGraphModel>
  </diagram>
</mxfile>
